<?xml version="1.0" encoding="UTF-8"?><!DOCTYPE svg PUBLIC '-//W3C//DTD SVG 1.1//EN'  'http://www.w3.org/Graphics/SVG/1.1/DTD/svg11.dtd'><svg enable-background="new 0 0 1000 1000" version="1.1" viewBox="0 0 1000 1000" xml:space="preserve" xmlns="http://www.w3.org/2000/svg"><metadata> Svg Vector Icons : http://www.onlinewebfonts.com/icon </metadata><g transform="translate(0 511) scale(.1 -.1)"><path d="m4517.6 3503v-1504.7l-119.5-41.4c-66.6-20.7-160.8-57.4-209-82.7l-85-43.6-156.2 124.1c-408.9 326.2-843.1 491.6-1350.8 514.6-1134.8 55.1-2125-677.7-2414.4-1780.4-48.2-186.1-59.7-294-68.9-640.9l-13.8-420.4h3007.1l82.7-211.3 82.7-209-110.3-135.5c-213.6-255-388.2-604.2-475.5-951.1-29.9-117.2-39-255-39-537.5 0-459.5 39-636.3 227.4-1024.6 234.3-482.4 595-850 1068.2-1088.9 349.2-176.9 588.1-229.7 1121-245.8l418.1-13.8v3007.1l209.1 82.7 211.3 82.7 140.1-114.9c305.5-248.1 668.5-415.8 1063.6-491.6 271.1-50.5 723.6-34.5 987.8 34.5 854.6 222.9 1500.1 868.4 1722.9 1722.9 48.2 183.8 59.7 291.8 68.9 640.9l13.8 418.1h-3011.6l-41.3 121.7c-20.7 64.3-57.4 158.5-82.7 204.5l-41.3 87.3 108 130.9c330.8 408.9 503.1 850 528.4 1364.6 48.2 987.8-487 1872.2-1387.5 2288-312.4 144.7-560.5 193-1033.8 206.8l-420.4 13.8v-1507.1zm1111.8 383.7c356.1-174.6 634-519.2 737.4-916.6 43.7-174.6 43.7-491.6 0-666.2-36.7-144.7-165.4-420.4-238.9-514.6l-41.4-55.1-124.1 71.2c-68.9 36.8-204.4 96.5-300.9 130.9l-179.2 64.3v971.7c0 535.3 6.9 974 13.8 974 7 0.1 66.7-27.5 133.3-59.6zm-2823.3-2409.8c144.7-36.8 420.4-165.4 514.6-238.9l55.1-43.6-68.9-124.1c-39-68.9-98.8-204.4-133.2-300.9l-64.3-176.9h-971.7c-535.2 0-974 6.9-974 13.8s36.8 82.7 80.4 167.7c183.8 349.2 498.5 595 895.9 703 156.1 43.5 498.4 41.2 666.1-0.1zm2437.4-411.2c431.9-114.9 744.3-514.6 744.3-955.7 0-535.3-452.6-987.8-987.8-987.8s-987.8 452.5-987.8 987.8c0 436.5 307.8 836.2 735.1 955.7 140.1 39 353.8 39 496.2 0zm3581.4-1488.7c-34.5-117.1-170-312.4-321.6-468.6-179.2-179.2-395.1-303.2-643.2-365.3-176.9-45.9-507.7-43.6-686.9 2.3-137.8 34.5-388.2 153.9-491.6 234.3l-55.1 41.4 91.9 183.8c50.5 98.8 108 236.6 130.9 303.2l39.1 119.5h1950.3l-13.8-50.6zm-4725.4-1187.6c96.5-48.3 232-105.7 298.6-126.3l119.5-41.4v-1950.3l-50.5 13.8c-117.1 34.5-312.4 170-466.3 321.6-268.8 268.8-402 595-402 987.8 0 220.5 29.9 365.2 112.6 551.3 50.5 114.9 181.5 333.1 199.9 333.1 6.7 0 89.4-39.1 188.2-89.6z"/></g></svg>
